<svg viewBox="0 0 200 200" xmlns="http://www.w3.org/2000/svg">
  <path fill="#2B8B4B" d="M50,-28.1C59.1,-13.2,56.7,9.1,46.5,25.1C36.2,41.1,18.1,50.8,-3.5,52.8C-25.2,54.8,-50.4,49.2,-59,34.1C-67.7,19.1,-59.8,-5.5,-47.2,-22.4C-34.7,-39.3,-17.3,-48.6,1.6,-49.5C20.5,-50.4,41,-42.9,50,-28.1Z" transform="translate(100 100) scale(2)" />
  <path fill= "#f8db66" transform="translate(60 60) scale(4)" d="M16 17a3 3 0 0 1-3 3h-2a3 3 0 0 1 0-6h2a3 3 0 0 1 1 .17V1l6-1v4l-4 .67V17zM0 3h12v2H0V3zm0 4h12v2H0V7zm0 4h12v2H0v-2zm0 4h6v2H0v-2z"/>
</svg>